<svg xmlns="http://www.w3.org/2000/svg" xmlns:xlink="http://www.w3.org/1999/xlink" width="512" zoomAndPan="magnify" viewBox="0 0 384 383.999986" height="512" preserveAspectRatio="xMidYMid meet" version="1.0"><defs><clipPath id="699f0ecaeb"><rect x="0" width="384" y="0" height="384"/></clipPath><clipPath id="838e300cbf"><path d="M 119.914062 97 L 383.914062 97 L 383.914062 284 L 119.914062 284 Z M 119.914062 97 " clip-rule="nonzero"/></clipPath></defs><g><g clip-path="url(#699f0ecaeb)"><path fill="#8b5e3c" d="M 312.828125 312.554688 C 384.242188 241.148438 377.8125 118.9375 298.464844 39.589844 L 39.863281 298.1875 C 119.210938 377.539062 241.421875 383.960938 312.828125 312.554688 Z M 312.828125 312.554688 " fill-opacity="1" fill-rule="nonzero"/><path fill="#603913" d="M 298.464844 39.589844 C 338.132812 79.257812 312.410156 169.316406 241.003906 240.730469 C 169.578125 312.136719 79.53125 337.859375 39.871094 298.1875 C 0.203125 258.53125 25.914062 168.472656 97.339844 97.054688 C 168.738281 25.640625 258.792969 -0.0703125 298.464844 39.589844 Z M 298.464844 39.589844 " fill-opacity="1" fill-rule="nonzero"/><path fill="#f5f8fa" d="M 47.835938 252.109375 C 45.511719 254.433594 42.148438 255.523438 38.828125 254.914062 C 34.894531 254.191406 31.757812 251.234375 30.800781 247.34375 C 30.121094 244.613281 14.800781 179.585938 61.410156 132.976562 C 72.789062 121.601562 89.679688 94.640625 94.488281 86.816406 C 98.550781 82.601562 101.933594 84.074219 109.703125 76.300781 C 113.257812 72.746094 123.976562 53.464844 154.796875 82.691406 C 158.355469 86.066406 158.761719 91.613281 155.976562 95.644531 L 49.027344 250.695312 C 48.660156 251.203125 48.265625 251.683594 47.835938 252.109375 Z M 47.835938 252.109375 " fill-opacity="1" fill-rule="nonzero"/><path fill="#603913" d="M 122.199219 82.914062 C 115.015625 90.097656 107.386719 97.308594 107.386719 97.308594 C 107.386719 97.308594 82.964844 125.796875 68.589844 140.160156 C 25.5 183.261719 40.65625 244.925781 40.65625 244.925781 L 159.023438 85.667969 C 159.023438 85.667969 130.660156 75.082031 122.199219 82.914062 Z M 109.289062 69.160156 C 127.910156 54.550781 157.816406 65.960938 165.160156 73.183594 C 172.097656 80.121094 169.90625 93.339844 164.335938 101.40625 L 57.386719 256.457031 C 56.675781 257.484375 55.894531 258.417969 55.03125 259.28125 C 50.355469 263.953125 43.640625 266.117188 37 264.898438 C 29.136719 263.457031 22.847656 257.535156 20.9375 249.773438 C 20.207031 246.796875 3.617188 176.394531 54.226562 125.785156 C 63.289062 116.722656 73.914062 108.128906 83.777344 96.191406 C 87.121094 91.894531 95.828125 81.554688 104.847656 72.542969 Z M 109.289062 69.160156 " fill-opacity="1" fill-rule="nonzero"/><path fill="#f5f8fa" d="M 284.097656 53.953125 C 315.835938 85.6875 290.113281 162.875 226.632812 226.347656 C 163.167969 289.820312 85.972656 315.550781 54.238281 283.816406 C 22.5 252.078125 48.234375 174.882812 111.707031 111.410156 C 175.175781 47.949219 252.363281 22.21875 284.097656 53.953125 Z M 284.097656 53.953125 " fill-opacity="1" fill-rule="nonzero"/><path fill="#99aab5" d="M 263 75.957031 C 286.546875 99.503906 263.84375 160.417969 212.265625 211.992188 C 160.679688 263.578125 99.789062 286.273438 76.230469 262.726562 C 52.683594 239.175781 75.386719 178.277344 126.964844 126.691406 C 178.53125 75.101562 239.441406 52.398438 263 75.957031 Z M 263 75.957031 " fill-opacity="1" fill-rule="nonzero"/><path fill="#99aab5" d="M 163.566406 107.0625 L 151.617188 103.660156 C 145.910156 100.488281 137.863281 100.277344 132.359375 105.355469 L 120.054688 118.289062 C 114.234375 125.296875 100.5625 139.996094 89.628906 150.929688 C 50.957031 189.601562 66.074219 239.53125 66.742188 241.644531 C 67.320312 243.496094 68.90625 244.84375 70.816406 245.140625 C 72.433594 245.382812 74.046875 244.84375 75.175781 243.707031 C 75.386719 243.496094 75.582031 243.269531 75.765625 243.015625 L 165.128906 114.316406 C 165.933594 113.15625 166.226562 111.734375 165.921875 110.355469 C 165.628906 108.984375 164.773438 107.792969 163.566406 107.0625 Z M 163.566406 107.0625 " fill-opacity="1" fill-rule="nonzero"/><path fill="#f5f8fa" d="M 127.390625 270.792969 C 127.390625 270.792969 159.988281 249.609375 165.699219 232.484375 C 172.078125 213.332031 213.058594 209.605469 219.4375 190.445312 C 225.808594 171.296875 236.464844 142.039062 242.328125 130.328125 C 248.179688 118.613281 255.105469 130.316406 261.484375 111.167969 C 267.867188 91.996094 280.636719 79.226562 280.636719 79.226562 C 280.636719 79.226562 280.636719 168.636719 261.484375 187.785156 C 242.328125 206.945312 165.699219 283.570312 159.308594 277.171875 C 152.929688 270.792969 127.390625 270.792969 127.390625 270.792969 Z M 127.390625 270.792969 " fill-opacity="1" fill-rule="nonzero"/><path fill="#603913" d="M 136.757812 287.796875 C 136.757812 287.796875 174.648438 262.023438 180.601562 244.175781 C 187.257812 224.222656 234.339844 217.570312 240.984375 197.617188 C 247.640625 177.664062 257.199219 141.886719 260.417969 137.761719 C 269.722656 125.773438 273.71875 137.753906 280.371094 117.8125 C 287.023438 97.847656 300.324219 84.550781 300.324219 84.550781 C 300.324219 84.550781 300.324219 177.664062 280.371094 197.617188 C 260.417969 217.578125 180.613281 297.386719 173.949219 290.734375 C 167.292969 284.089844 136.757812 287.796875 136.757812 287.796875 Z M 136.757812 287.796875 " fill-opacity="1" fill-rule="nonzero"/><path fill="#8b5e3c" d="M 147.617188 305.371094 C 147.617188 305.371094 184.289062 281.550781 190.710938 262.277344 C 197.890625 240.730469 255.371094 226.355469 262.550781 204.808594 C 269.734375 183.253906 269.734375 154.523438 276.917969 147.34375 C 284.097656 140.148438 291.28125 147.34375 298.464844 125.785156 C 305.644531 104.238281 320.011719 89.875 320.011719 89.875 C 320.011719 89.875 320.011719 190.445312 298.464844 211.992188 C 276.917969 233.539062 190.71875 319.734375 183.539062 312.554688 C 176.34375 305.371094 147.617188 305.371094 147.617188 305.371094 Z M 147.617188 305.371094 " fill-opacity="1" fill-rule="nonzero"/><path fill="#a97c50" d="M 258.9375 339.839844 C 258.011719 336.945312 250.441406 339.21875 247.628906 339.851562 C 177.1875 355.351562 129.179688 325.78125 128.648438 325.535156 C 125.886719 324.15625 122.769531 325.191406 121.691406 327.8125 C 120.613281 330.433594 121.957031 333.671875 124.699219 335.046875 C 126.984375 336.183594 173.542969 360.949219 247.871094 344.585938 C 248.796875 344.371094 255.199219 343.253906 255.808594 342.644531 C 257.054688 341.394531 259.566406 341.789062 258.9375 339.839844 Z M 343.902344 238.578125 C 342.734375 239.734375 342.804688 240.730469 340.957031 240.253906 C 338.03125 239.511719 337.921875 235 338.367188 232.148438 C 343.363281 199.71875 334.710938 166.074219 319.664062 126.984375 C 318.578125 124.128906 319.9375 121.144531 322.652344 120.359375 C 325.414062 119.546875 328.535156 121.214844 329.628906 124.058594 C 345.425781 165.039062 350.527344 201.628906 345.234375 235.9375 C 345.0625 236.992188 344.585938 237.886719 343.902344 238.578125 Z M 238.691406 331.816406 C 237.976562 332.535156 236.992188 333.011719 235.855469 333.15625 C 197.566406 337.484375 165.832031 321.605469 164.5 320.925781 C 161.769531 319.53125 160.4375 316.292969 161.542969 313.671875 C 162.640625 311.039062 165.78125 310.054688 168.535156 311.457031 C 168.828125 311.609375 196.398438 330.179688 231.324219 326.21875 C 234.21875 325.890625 239.714844 326.054688 240.355469 329.011719 C 240.722656 330.808594 239.816406 330.695312 238.691406 331.816406 Z M 238.691406 331.816406 " fill-opacity="1" fill-rule="nonzero"/></g></g><path fill="#aa7e50" d="M 249.992188 311.234375 C 252.445312 343.601562 259.863281 363.230469 259.773438 375.160156 C 259.710938 383.992188 255.550781 388.582031 242.238281 391.007812 C 239.9375 391.417969 236.738281 390.65625 234.589844 389.832031 C 231.445312 388.671875 228.957031 386.207031 227.761719 383.074219 C 227.503906 382.433594 227.277344 381.777344 227.0625 381.125 C 226.332031 378.851562 225.8125 376.519531 225.507812 374.152344 C 225.507812 374.089844 225.492188 374.046875 225.492188 373.984375 C 225.28125 372.429688 225.144531 370.859375 225.066406 369.289062 C 224.898438 365.777344 224.992188 362.226562 225.113281 358.6875 C 225.160156 357.375 225.203125 356.046875 225.25 354.734375 C 225.296875 353.5625 225.324219 352.417969 225.339844 351.257812 C 225.339844 349.289062 225.355469 347.324219 225.371094 345.371094 C 225.386719 344.425781 225.386719 343.480469 225.417969 342.550781 C 225.539062 333.183594 225.875 323.820312 226.269531 314.453125 C 226.269531 314.316406 226.285156 314.164062 226.285156 314.027344 C 226.347656 312.640625 226.40625 311.265625 226.46875 309.894531 C 226.515625 309.144531 226.542969 308.382812 226.574219 307.636719 C 226.652344 305.957031 226.820312 304.25 226.820312 302.570312 C 227.214844 294.898438 227.671875 287.226562 228.25 279.554688 C 228.359375 278.183594 228.464844 276.796875 228.570312 275.421875 C 228.738281 273.347656 228.90625 271.289062 229.089844 269.214844 C 229.757812 261.710938 230.550781 254.222656 231.527344 246.761719 C 231.695312 245.4375 231.863281 244.125 232.042969 242.796875 C 232.074219 242.582031 232.105469 242.355469 232.136719 242.140625 C 233.125 234.972656 234.285156 227.835938 235.746094 220.757812 C 236.859375 215.28125 238.152344 209.835938 239.753906 204.480469 C 240.074219 203.414062 240.40625 202.347656 240.757812 201.277344 C 241.691406 198.390625 242.769531 195.546875 243.988281 192.769531 C 244.597656 191.410156 245.238281 190.070312 245.953125 188.742188 L 245.953125 188.726562 C 246.648438 187.449219 247.417969 186.210938 248.253906 185.019531 C 249.378906 183.351562 250.773438 181.882812 252.382812 180.671875 C 253.488281 179.835938 254.796875 179.3125 256.175781 179.164062 C 257.324219 179.070312 258.476562 179.320312 259.480469 179.878906 C 260.511719 180.488281 261.402344 181.308594 262.085938 182.289062 C 262.300781 182.59375 262.515625 182.898438 262.695312 183.21875 C 263.164062 184.039062 263.546875 184.902344 263.839844 185.796875 C 263.929688 186.101562 264.023438 186.421875 264.097656 186.726562 C 265.515625 192.3125 262.347656 198.214844 258.644531 212.75 C 257.804688 216.058594 256.9375 219.8125 256.085938 224.128906 C 253.511719 237.023438 251.625 250.046875 250.433594 263.144531 C 250.355469 264.027344 250.28125 264.898438 250.21875 265.765625 C 248.9375 280.894531 248.859375 296.097656 249.992188 311.234375 Z M 249.992188 311.234375 " fill-opacity="1" fill-rule="nonzero"/><g clip-path="url(#838e300cbf)"><path fill="#6c754d" d="M 336.433594 283.742188 L 333.148438 283.742188 C 332.507812 283.496094 331.867188 283.253906 331.230469 283 C 327.417969 281.472656 324.757812 278.511719 322.273438 275.464844 C 318.609375 270.96875 315.730469 265.9375 313.078125 260.785156 C 312.027344 258.734375 311.015625 256.664062 309.984375 254.601562 C 309.675781 255.066406 309.476562 255.601562 309.40625 256.15625 C 308.449219 260.660156 305.0625 262.300781 301.472656 259.550781 C 299.871094 258.261719 298.457031 256.761719 297.261719 255.089844 C 292.894531 249.117188 289.34375 242.585938 286.699219 235.671875 C 286.105469 234.175781 285.472656 232.691406 284.839844 231.160156 C 284.386719 232.214844 284.015625 233.167969 283.574219 234.085938 C 282.375 236.601562 279.503906 237.742188 276.585938 235.832031 C 274.648438 234.5625 273.378906 232.703125 272.191406 230.820312 C 267.96875 224.117188 265.222656 216.75 262.664062 209.292969 C 260.9375 204.25 260.066406 198.949219 257.933594 194.03125 C 256.726562 191.238281 255.699219 188.363281 254.597656 185.546875 C 252.964844 188.195312 251.371094 190.75 249.8125 193.328125 C 245.945312 199.71875 242.113281 206.132812 238.230469 212.511719 C 233.59375 220.121094 228.65625 227.5 221.851562 233.398438 C 220.773438 234.351562 219.546875 235.121094 218.21875 235.683594 C 216.746094 236.328125 215.03125 235.652344 214.390625 234.175781 C 214.25 233.851562 214.167969 233.503906 214.152344 233.152344 C 214.0625 231.707031 214.511719 230.226562 214.722656 228.761719 L 214.621094 228.0625 L 214.460938 228.554688 C 212.535156 230.722656 210.609375 232.890625 208.683594 235.054688 C 205.5 238.714844 201.851562 241.9375 197.832031 244.648438 C 196.59375 245.535156 195.070312 245.9375 193.554688 245.777344 C 191.792969 245.578125 190.75 244.589844 190.769531 242.847656 C 190.785156 241.484375 190.976562 240.121094 191.089844 238.757812 L 191.339844 238.824219 L 191.308594 238.574219 L 191.117188 238.808594 C 190.824219 239.011719 190.554688 239.242188 190.300781 239.492188 C 185.910156 244.640625 181.066406 249.296875 175.167969 252.691406 C 172.957031 253.890625 170.667969 254.933594 168.3125 255.808594 C 167.15625 256.332031 165.796875 256.011719 164.996094 255.03125 C 164.1875 254.070312 164.308594 253.167969 165.304688 251.710938 C 166.292969 250.265625 167.300781 248.832031 168.304688 247.390625 C 168.328125 247.25 168.355469 247.105469 168.382812 246.960938 L 168.042969 247.140625 C 167.558594 247.488281 167.074219 247.839844 166.589844 248.183594 C 164.425781 249.722656 162.332031 251.375 160.082031 252.773438 C 157.011719 254.683594 153.511719 254.90625 150.070312 254.441406 C 145.410156 253.808594 142.652344 249.785156 142.597656 245.535156 C 142.519531 241.957031 143.390625 238.425781 145.113281 235.292969 C 146.535156 232.722656 148.003906 230.179688 149.515625 227.65625 C 154.679688 219.0625 161.085938 211.425781 167.914062 204.136719 C 172.511719 199.199219 177.46875 194.609375 182.75 190.410156 C 189.804688 184.730469 197.558594 179.976562 205.820312 176.265625 C 206.371094 176.023438 206.886719 175.699219 207.691406 175.265625 C 204.328125 174.558594 201.082031 174.105469 200.417969 170.136719 C 200.238281 170.164062 200.066406 170.214844 199.898438 170.28125 C 195.957031 172.4375 191.679688 173.921875 187.246094 174.671875 C 185.335938 175.019531 183.378906 175.042969 181.460938 174.742188 C 179.042969 174.324219 177.558594 172.574219 177.066406 170.191406 C 174.585938 171.378906 172.261719 172.660156 169.8125 173.628906 C 165.914062 175.167969 161.984375 176.695312 157.609375 175.988281 C 154.949219 175.617188 152.558594 174.167969 150.996094 171.980469 C 149.640625 170.238281 149.238281 167.929688 149.921875 165.828125 C 149.351562 166.074219 148.988281 166.222656 148.632812 166.382812 C 142.519531 169.175781 136.183594 171.449219 129.691406 173.179688 C 128.1875 173.609375 126.648438 173.890625 125.089844 174.015625 C 122.722656 174.144531 120.996094 172.957031 119.914062 170.851562 L 119.914062 166.46875 C 120.023438 166.332031 120.21875 166.207031 120.230469 166.066406 C 120.523438 163.050781 121.714844 160.191406 123.648438 157.855469 C 128.105469 152.164062 133.527344 147.296875 139.664062 143.476562 C 141.953125 142.035156 144.429688 140.886719 146.699219 139.417969 C 150.027344 137.242188 153.632812 135.535156 157.421875 134.335938 C 162.621094 132.667969 167.980469 131.554688 173.410156 131.019531 C 177.738281 130.628906 182.070312 130.183594 186.410156 129.976562 C 188.820312 129.859375 191.253906 130.253906 193.675781 130.277344 C 198.550781 130.421875 203.402344 131.03125 208.160156 132.101562 C 221.105469 134.757812 233.300781 140.25 243.871094 148.1875 C 244.304688 148.507812 244.789062 148.757812 245.25 149.039062 L 245.46875 148.730469 C 245.234375 148.308594 244.964844 147.910156 244.664062 147.535156 C 239.511719 142.042969 234.394531 136.515625 229.160156 131.097656 C 227.011719 128.875 224.644531 126.855469 222.3125 124.816406 C 219.625 122.464844 216.878906 120.175781 214.128906 117.898438 C 210.628906 115 207.019531 112.226562 203.617188 109.214844 C 202.242188 107.945312 201.085938 106.453125 200.199219 104.804688 C 198.710938 102.121094 199.589844 100.046875 202.441406 98.867188 C 205.136719 97.785156 208.109375 97.597656 210.921875 98.332031 C 214.023438 99.089844 216.949219 100.433594 219.546875 102.296875 C 220.34375 102.855469 221.164062 103.390625 222.085938 104.011719 C 222.105469 101.035156 223.332031 100.109375 226.003906 100.863281 C 227.042969 101.148438 228.058594 101.507812 229.042969 101.941406 C 233.296875 103.863281 237.179688 106.511719 240.519531 109.769531 C 242.433594 111.617188 244.34375 113.464844 246.253906 115.3125 L 246.414062 115.566406 L 246.484375 115.34375 L 246.222656 115.355469 C 246.230469 114.144531 246.164062 112.925781 246.265625 111.722656 C 246.519531 108.800781 249.023438 107.335938 251.347656 108.324219 C 253.277344 109.199219 255.03125 110.421875 256.515625 111.933594 C 260.90625 116.203125 264.257812 121.429688 266.300781 127.203125 C 267.691406 130.785156 268.566406 134.550781 268.898438 138.378906 C 269.074219 140.972656 269.4375 143.570312 269.414062 146.164062 C 269.386719 149.246094 269.035156 152.324219 268.824219 155.40625 L 268.625 155.691406 L 268.886719 155.507812 C 269.347656 155.125 269.78125 154.714844 270.1875 154.273438 C 272.523438 151.476562 275.253906 149.039062 278.296875 147.035156 C 284.226562 143.0625 291.09375 140.710938 298.210938 140.222656 C 301.117188 140.058594 304.027344 140.171875 306.910156 140.566406 C 310.066406 140.929688 313.203125 141.46875 316.300781 142.1875 C 325.417969 144.28125 334.007812 147.785156 342.316406 152.054688 C 349.058594 155.523438 355.183594 159.898438 361.261719 164.394531 C 367.140625 168.746094 372.679688 173.425781 377.316406 179.09375 C 380 182.371094 382.460938 185.785156 383.3125 190.109375 C 383.917969 193.191406 382.59375 196.152344 379.589844 197.023438 C 377.859375 197.5625 376.023438 197.660156 374.242188 197.3125 C 371.390625 196.609375 368.621094 195.609375 365.976562 194.328125 C 361.003906 191.949219 356.644531 188.5625 352.195312 185.339844 C 351.046875 184.503906 349.90625 183.648438 348.765625 182.800781 C 348.769531 183.476562 348.886719 184.148438 349.113281 184.785156 C 349.734375 187.953125 348.828125 190.003906 345.304688 189.472656 C 343.640625 189.269531 342.03125 188.742188 340.566406 187.921875 C 336.558594 185.472656 332.691406 182.785156 328.777344 180.171875 C 327.257812 179.15625 325.765625 178.09375 324.261719 177.050781 C 324.605469 178.15625 325.03125 179.230469 325.535156 180.273438 C 326.433594 182.53125 325.078125 184.683594 322.660156 184.695312 C 321.464844 184.652344 320.277344 184.445312 319.140625 184.082031 C 315.386719 183.023438 312.046875 181.070312 308.734375 179.09375 C 305.578125 177.207031 302.484375 175.210938 299.363281 173.261719 L 298.964844 173.148438 L 299.183594 173.417969 C 299.324219 174.242188 299.382812 175.082031 299.363281 175.917969 C 299.039062 178.5625 297.449219 179.71875 294.625 179.945312 C 293.179688 180.0625 291.703125 179.796875 289.910156 179.683594 C 290.425781 180.101562 290.683594 180.335938 290.964844 180.535156 C 297.71875 185.257812 304.058594 190.550781 309.914062 196.355469 C 314.183594 200.582031 318.1875 205.066406 321.90625 209.785156 C 326.5625 215.660156 330.523438 222.054688 333.707031 228.847656 C 338.878906 240.074219 342.554688 251.75 343.785156 264.128906 C 344.167969 267.433594 344.160156 270.773438 343.773438 274.078125 C 343.160156 278.746094 341.117188 282.222656 336.433594 283.742188 Z M 246.410156 149.5 L 246.371094 149.597656 L 246.421875 149.515625 L 245.671875 149.253906 L 245.617188 149.566406 Z M 246.410156 149.5 " fill-opacity="1" fill-rule="nonzero"/></g><path fill="#735334" d="M 259.773438 375.160156 C 259.710938 383.992188 255.550781 388.582031 242.238281 391.007812 C 239.9375 391.417969 236.738281 390.65625 234.589844 389.832031 C 230.183594 388.15625 228.332031 385.03125 227.0625 381.121094 C 227.125 381.125 250.257812 384.050781 259.773438 375.160156 Z M 253.539062 365.335938 C 252.519531 364.140625 248.589844 368.550781 237.195312 370.1875 C 224.34375 372.039062 224.277344 365.113281 225.492188 373.984375 C 236.300781 376.0625 246.816406 374.109375 253.539062 365.335938 Z M 244.125 356.414062 C 244.582031 356.167969 244.855469 355.527344 245.207031 355.054688 C 245.132812 354.917969 245.070312 354.78125 244.996094 354.644531 C 223.199219 359.210938 225.417969 349.949219 225.113281 358.6875 C 233.910156 360.355469 236.179688 360.535156 244.125 356.414062 Z M 230.476562 343.679688 C 229.613281 343.054688 230.839844 343.191406 225.417969 342.550781 C 225.386719 343.480469 225.386719 344.425781 225.371094 345.371094 C 226.882812 345.417969 228.386719 345.132812 229.773438 344.53125 C 230.0625 344.410156 230.230469 343.96875 230.476562 343.679688 Z M 274.234375 189.890625 C 273.507812 178.816406 257.003906 173.699219 253.144531 187.15625 C 241.992188 177.347656 234.957031 196.359375 244.101562 200.398438 C 245.566406 201.042969 247.144531 201.429688 248.6875 201.9375 C 246.765625 210.707031 264.015625 213.335938 262.207031 200.5 C 267.785156 201.03125 274.691406 196.851562 274.234375 189.890625 Z M 233.84375 316.222656 C 238.53125 316.898438 245.089844 315.671875 246.425781 311.371094 C 242.324219 311.726562 239.441406 313.527344 230.992188 311.28125 C 225.914062 309.933594 226.269531 308.382812 226.269531 314.453125 C 228.761719 315.171875 231.289062 315.761719 233.84375 316.222656 Z M 241.429688 276.503906 C 237.042969 276.140625 232.820312 275.789062 228.570312 275.421875 C 228.464844 276.796875 228.359375 278.183594 228.25 279.554688 C 232.617188 280.304688 240.882812 281.011719 241.429688 276.503906 Z M 248.265625 330.164062 C 241.84375 331.902344 235.367188 331.492188 228.875 331.609375 C 231.59375 335.90625 241.734375 334.3125 246.214844 332.65625 C 247.175781 332.296875 248.144531 331.746094 248.265625 330.164062 Z M 244.324219 245.207031 C 240.179688 243.910156 236.019531 243.925781 232.042969 242.796875 C 231.863281 244.125 231.695312 245.4375 231.527344 246.761719 C 235.566406 247.816406 242.066406 248.746094 244.324219 245.207031 Z M 240.4375 231.792969 C 241.941406 234.414062 247.820312 236.351562 251.519531 234.742188 C 253.414062 233.914062 253.632812 231.949219 250.835938 231.582031 C 249.4375 231.5625 248.042969 231.445312 246.664062 231.230469 C 244.570312 230.867188 241.867188 229.09375 240.4375 231.792969 Z M 250.21875 265.765625 C 250.28125 264.898438 250.355469 264.027344 250.433594 263.144531 C 247.21875 262.898438 244.066406 261.664062 240.726562 263.023438 C 242.589844 265.734375 246.277344 265.859375 250.21875 265.765625 Z M 234.535156 298.191406 C 235.980469 300.203125 239.472656 300.105469 242.03125 298.9375 C 246.894531 296.722656 231.132812 293.4375 234.535156 298.191406 Z M 250.105469 223.71875 C 250.871094 223.136719 250.699219 221.761719 249.839844 221.515625 C 238.863281 218.367188 246.105469 226.78125 250.105469 223.71875 Z M 239.703125 323.949219 C 242.015625 321.828125 237.308594 320.828125 234.175781 321.910156 C 234.964844 324.378906 238.097656 325.421875 239.703125 323.949219 Z M 243.835938 344.039062 C 242.289062 343.671875 239.082031 344.171875 237.75 344.984375 C 240.324219 346.039062 242.847656 345.644531 243.835938 344.039062 Z M 236.078125 254.414062 C 237.035156 256.277344 238.363281 256.679688 240.292969 255.582031 C 239.421875 254.488281 237.617188 254.023438 236.078125 254.414062 Z M 236.761719 287.90625 C 237.355469 287.285156 237.964844 286.941406 238.023438 286.519531 C 238.238281 284.980469 235.386719 284.921875 235.53125 286.445312 C 235.574219 286.898438 236.214844 287.292969 236.761719 287.90625 Z M 236.761719 287.90625 " fill-opacity="1" fill-rule="nonzero"/><path fill="#4f563a" d="M 194.25 150.546875 C 175.671875 147.867188 144.410156 157.59375 144.410156 156.601562 C 160.082031 141.519531 231.050781 150.242188 160.558594 142.070312 C 189.1875 136.453125 184.898438 146.617188 221.253906 150.695312 C 210.804688 145.492188 199.851562 141.648438 188.328125 138.3125 C 204.5 135.855469 220.394531 149.121094 236.929688 155.902344 C 239.273438 156.816406 250.277344 161.558594 249.429688 164.058594 C 231.347656 155.550781 222.191406 154.476562 199.230469 163.640625 C 194.371094 165.058594 199.132812 161.921875 201.773438 160.851562 C 214.710938 155.609375 218.503906 156.140625 223.210938 154.457031 C 210.792969 152.027344 202.917969 147.863281 169.585938 160.421875 C 170.285156 154.542969 188.347656 151.1875 194.25 150.546875 Z M 237.304688 173.960938 C 196.296875 183.519531 171.988281 237.113281 178.058594 230.09375 C 198.589844 206.339844 189.015625 212.847656 190.542969 222.332031 C 194.429688 218.996094 200.019531 198.207031 208.207031 194.382812 C 205.496094 200.398438 203.0625 206.042969 204.046875 212.875 C 212.558594 201.402344 208.714844 191.375 224.625 182.871094 C 228.832031 180.621094 219.039062 189.273438 219.230469 200.25 C 223.355469 195.105469 223.527344 194.875 231.527344 181.195312 C 234.621094 175.910156 244.988281 177.429688 244.667969 174.226562 C 244.46875 172.253906 239.253906 173.503906 237.304688 173.960938 Z M 275.363281 163.027344 C 277.738281 167.273438 283.058594 156.015625 292.703125 159.742188 C 293.566406 160.078125 307.363281 165.464844 307.75 164.652344 C 303.929688 160.832031 301.496094 157.820312 292.382812 154.882812 C 302.378906 151.890625 312.25 157.914062 322.183594 162.246094 C 327.851562 164.71875 317.796875 154.9375 312.203125 152.203125 C 315.773438 152.414062 324.6875 153.167969 327.703125 155.101562 C 346.121094 166.886719 342.335938 164.34375 344.191406 165.832031 C 345.511719 164.523438 341.109375 160.183594 339.867188 158.527344 C 347.746094 161.253906 346.773438 161.046875 347.070312 160.632812 C 334.328125 146.347656 292.648438 139.617188 275.363281 163.027344 Z M 282.515625 190.640625 C 279.839844 193.464844 289.757812 197.214844 290.015625 200.660156 C 290.578125 208.226562 292.878906 211.511719 293.714844 213.152344 C 294.355469 212.957031 294.195312 214.117188 294.195312 203.878906 C 297.257812 207.5 299.175781 209.351562 300.164062 212.128906 C 300.429688 214.832031 309.292969 244.273438 306.175781 219.65625 C 317.410156 236.082031 331.367188 265.554688 328.933594 256.042969 C 320.5 223.019531 286.335938 186.617188 282.515625 190.640625 Z M 205.109375 111.164062 C 271.746094 171.265625 220.621094 126.378906 211.621094 133.765625 C 216.578125 136.640625 215.535156 133.59375 230.054688 141.945312 C 251.386719 154.222656 252.683594 165.617188 256.222656 163.570312 C 259.75 154.589844 192.171875 92.9375 205.109375 111.164062 Z M 262.023438 169.058594 C 264.203125 172.289062 266.195312 172.0625 268.976562 173.285156 C 306.675781 189.847656 314.585938 205.773438 330.578125 226.265625 C 332.410156 225.789062 326.691406 212.527344 311.371094 196.050781 C 297.507812 181.132812 263.691406 165.027344 262.023438 169.058594 Z M 174.105469 197.523438 C 178.652344 201.308594 185.878906 175.972656 244.121094 169.398438 C 250.976562 168.625 248.585938 169.554688 250.992188 168.394531 C 247.382812 161.042969 182.488281 175.800781 174.105469 197.523438 Z M 259.734375 132.546875 C 257.570312 133.101562 256.082031 136.933594 255.632812 142.648438 C 240.40625 106.179688 219.933594 107.222656 229.34375 112.476562 C 236.394531 116.414062 242.082031 123.636719 238.546875 120.484375 C 235.027344 118.519531 233.71875 117.273438 230.863281 118.179688 C 240.386719 126.25 247.046875 126.484375 252.230469 140.742188 C 252.820312 143.101562 243.671875 130.328125 238.246094 130.027344 C 237.457031 131.894531 254.765625 144.457031 255.742188 151.695312 C 256.175781 154.929688 257.046875 155.738281 257.191406 155.976562 C 258.082031 154.496094 258.015625 154.183594 257.914062 144.226562 C 257.863281 139.058594 259.007812 136.582031 259.734375 132.546875 Z M 297.417969 141.800781 C 295.894531 138.300781 274.4375 146.964844 268.996094 151.6875 C 265.65625 154.582031 262.769531 158.003906 259.726562 161.238281 C 259.167969 161.832031 258.683594 162.613281 259.449219 163.707031 C 263.738281 162.183594 265.832031 159.828125 269.425781 156.925781 C 281.546875 147.140625 298.578125 144.464844 297.417969 141.800781 Z M 280.332031 216.941406 C 279.023438 222.546875 292.039062 248.53125 295.769531 249.828125 C 293.660156 243.800781 291.03125 239.335938 284.355469 224.824219 C 281.574219 218.769531 282.226562 216.460938 280.332031 216.941406 Z M 280.332031 216.941406 " fill-opacity="1" fill-rule="nonzero"/></svg>